<svg id="Layer_1" data-name="Layer 1" xmlns="http://www.w3.org/2000/svg" xmlns:xlink="http://www.w3.org/1999/xlink" viewBox="0 0 600 600"><defs><style>.cls-1{fill:none;}.cls-2{fill:#010101;}.cls-12,.cls-2{opacity:0.2;}.cls-11,.cls-3,.cls-9{fill:#fcb55f;}.cls-4{fill:#f79235;}.cls-5{fill:#f15b27;}.cls-6{fill:#f3712b;}.cls-7{opacity:0.5;}.cls-8{clip-path:url(#clip-path);}.cls-9{opacity:0.4;}.cls-10,.cls-11{opacity:0.3;}.cls-13{fill:#263849;}.cls-14{fill:#fff;}.cls-15{fill:#b5845f;}.cls-16{fill:#d1d2d3;}.cls-17{fill:#f5812d;}.cls-18{clip-path:url(#clip-path-2);}</style><clipPath id="clip-path"><circle class="cls-1" cx="237.81" cy="383.41" r="165.2"/></clipPath><clipPath id="clip-path-2"><circle class="cls-1" cx="377.54" cy="383.41" r="165.2"/></clipPath></defs><title>Artboard 1</title><ellipse class="cls-2" cx="316.52" cy="537.37" rx="281.48" ry="26.86"/><circle class="cls-3" cx="237.81" cy="383.41" r="160.13" transform="translate(-201.46 280.46) rotate(-45)"/><path class="cls-4" d="M237.81,228.35c85.51,0,155.07,69.56,155.07,155.06S323.32,538.47,237.81,538.47,82.75,468.91,82.75,383.41s69.56-155.06,155.06-155.06m0-10.14A165.2,165.2,0,1,0,403,383.41a165.2,165.2,0,0,0-165.21-165.2Z"/><path class="cls-5" d="M114.56,372.21a9.08,9.08,0,0,1-6.93-3.21,8.55,8.55,0,0,1-2-7,130.55,130.55,0,0,1,22.51-54.59,9,9,0,0,1,7.42-3.83,8.87,8.87,0,0,1,6.31,2.62l64.3,64.3a.93.93,0,0,1,.22,1.12.94.94,0,0,1-1,.63Z"/><path class="cls-6" d="M135.6,308.61a3.79,3.79,0,0,1,2.73,1.13l57.4,57.4H114.56a4,4,0,0,1-3.06-1.41,3.55,3.55,0,0,1-.83-2.94,125.48,125.48,0,0,1,21.65-52.48,4,4,0,0,1,3.28-1.7m0-10.14a14.12,14.12,0,0,0-11.55,6,136.7,136.7,0,0,0-23.39,56.68,14,14,0,0,0,13.9,16.16h90.92a6.09,6.09,0,0,0,4.31-10.41l-64.29-64.3a13.93,13.93,0,0,0-9.9-4.1Z"/><path class="cls-5" d="M135.6,464.27a9,9,0,0,1-7.41-3.84,130.4,130.4,0,0,1-22.52-54.58,8.56,8.56,0,0,1,2-7.05,9.08,9.08,0,0,1,6.93-3.21h90.92a1,1,0,0,1,.73,1.76l-64.29,64.3a8.91,8.91,0,0,1-6.32,2.62Z"/><path class="cls-6" d="M195.73,400.66l-57.4,57.4a3.79,3.79,0,0,1-2.73,1.14,4,4,0,0,1-3.28-1.7A125.53,125.53,0,0,1,110.67,405a3.54,3.54,0,0,1,.83-2.94,4,4,0,0,1,3.06-1.42h81.17m9.75-10.14H114.56a14,14,0,0,0-13.9,16.16,136.69,136.69,0,0,0,23.39,56.69,14.12,14.12,0,0,0,11.55,6,13.9,13.9,0,0,0,9.9-4.11l64.3-64.3a6.1,6.1,0,0,0-4.32-10.41Z"/><path class="cls-5" d="M249,354.24s-1.08,0-1.08-1V262.27a8.93,8.93,0,0,1,8.83-9,8.72,8.72,0,0,1,1.43.12,130.48,130.48,0,0,1,54.58,22.52,9.08,9.08,0,0,1,3.81,6.65,9,9,0,0,1-2.59,7.08l-64.3,64.3A.93.93,0,0,1,249,354.24Z"/><path class="cls-6" d="M256.7,258.33a3.1,3.1,0,0,1,.6.05A125.49,125.49,0,0,1,309.78,280a4,4,0,0,1,1.69,2.93,3.88,3.88,0,0,1-1.13,3.08l-57.4,57.39V262.27a3.9,3.9,0,0,1,3.76-3.94m0-10.14a14,14,0,0,0-13.9,14.08V353.2a6.1,6.1,0,0,0,6.15,6.11,6,6,0,0,0,4.27-1.8l64.29-64.29a14.08,14.08,0,0,0-1.86-21.45A136.44,136.44,0,0,0,259,248.38a13.64,13.64,0,0,0-2.27-.19Z"/><path class="cls-5" d="M266.89,372.21a.94.94,0,0,1-.95-.63.93.93,0,0,1,.22-1.12l64.29-64.3a9,9,0,0,1,13.73,1.22A130.48,130.48,0,0,1,366.7,362a8.55,8.55,0,0,1-2,7,9.08,9.08,0,0,1-6.93,3.21Z"/><path class="cls-6" d="M336.77,308.61a4,4,0,0,1,3.28,1.7,125.48,125.48,0,0,1,21.65,52.48,3.55,3.55,0,0,1-.83,2.94,4,4,0,0,1-3.06,1.41H276.64L334,309.75a3.79,3.79,0,0,1,2.73-1.14m0-10.14a13.9,13.9,0,0,0-9.9,4.11l-64.29,64.29a6.09,6.09,0,0,0,4.31,10.41h90.92a14,14,0,0,0,13.9-16.16,136.7,136.7,0,0,0-23.39-56.68,14.12,14.12,0,0,0-11.55-6Z"/><path class="cls-5" d="M223.42,354.24a.92.92,0,0,1-.68-.32l-64.29-64.29a9,9,0,0,1-2.6-7.09,9.1,9.1,0,0,1,3.81-6.64,130.4,130.4,0,0,1,54.58-22.52,8.75,8.75,0,0,1,1.44-.12,8.93,8.93,0,0,1,8.82,9v90.92a.94.94,0,0,1-.29.74,1.22,1.22,0,0,1-.79.31Z"/><path class="cls-6" d="M215.68,258.33a3.9,3.9,0,0,1,3.75,3.94v81.17L162,286a3.81,3.81,0,0,1-1.12-3.07,4,4,0,0,1,1.68-2.94,125.53,125.53,0,0,1,52.48-21.65,3.2,3.2,0,0,1,.61-.05m0-10.14a14.57,14.57,0,0,0-2.27.18,136.69,136.69,0,0,0-56.69,23.39,14.09,14.09,0,0,0-1.86,21.45l64.3,64.3a6,6,0,0,0,4.26,1.8,6.1,6.1,0,0,0,6.15-6.12V262.27a14,14,0,0,0-13.89-14.08Z"/><path class="cls-5" d="M215.68,514.55a8.75,8.75,0,0,1-1.44-.12,130.75,130.75,0,0,1-54.59-22.52,9.07,9.07,0,0,1-3.8-6.65,8.9,8.9,0,0,1,2.59-7.08l64.3-64.3a.92.92,0,0,1,.68-.32,1.06,1.06,0,0,1,1.08,1.05v90.93a9,9,0,0,1-2.65,6.4,8.68,8.68,0,0,1-6.17,2.61Z"/><path class="cls-6" d="M219.43,424.36v81.18a3.9,3.9,0,0,1-3.75,3.94,4.3,4.3,0,0,1-.61-.05,125.49,125.49,0,0,1-52.48-21.66,3.93,3.93,0,0,1-1.69-2.93,3.82,3.82,0,0,1,1.12-3.08l57.41-57.4m4-15.87a6,6,0,0,0-4.26,1.8l-64.31,64.3A14.09,14.09,0,0,0,156.72,496a136.42,136.42,0,0,0,56.69,23.39,13.46,13.46,0,0,0,2.27.19,14,14,0,0,0,13.89-14.08V414.61a6.1,6.1,0,0,0-6.15-6.12Z"/><path class="cls-5" d="M256.69,514.55a8.93,8.93,0,0,1-8.82-9V414.61a1.07,1.07,0,0,1,1.08-1.05.91.91,0,0,1,.68.32l64.3,64.29a8.94,8.94,0,0,1,2.59,7.09,9.05,9.05,0,0,1-3.8,6.64,130.64,130.64,0,0,1-54.59,22.53,8.72,8.72,0,0,1-1.43.12Z"/><path class="cls-6" d="M252.94,424.36l57.41,57.4a3.81,3.81,0,0,1,1.12,3.07,4,4,0,0,1-1.69,2.94,125.49,125.49,0,0,1-52.48,21.66,4.16,4.16,0,0,1-.6.05,3.9,3.9,0,0,1-3.76-3.94V424.36m-4-15.87a6.1,6.1,0,0,0-6.15,6.12v90.93a14,14,0,0,0,13.9,14.08,13.64,13.64,0,0,0,2.27-.19A136.52,136.52,0,0,0,315.65,496a14.09,14.09,0,0,0,1.87-21.45l-64.3-64.3a6,6,0,0,0-4.27-1.8Z"/><path class="cls-5" d="M336.77,464.27a8.88,8.88,0,0,1-6.31-2.63l-64.3-64.29a1,1,0,0,1,.73-1.76h90.92a9.08,9.08,0,0,1,6.93,3.21,8.56,8.56,0,0,1,2,7.05,130.4,130.4,0,0,1-22.52,54.58,9,9,0,0,1-7.41,3.84Z"/><path class="cls-6" d="M357.81,400.66a4,4,0,0,1,3.06,1.42,3.53,3.53,0,0,1,.83,2.93,125.42,125.42,0,0,1-21.65,52.48,4,4,0,0,1-3.28,1.71,3.8,3.8,0,0,1-2.73-1.14l-57.4-57.4h81.17m0-10.14H266.89a6.1,6.1,0,0,0-4.32,10.41l64.3,64.3a13.94,13.94,0,0,0,9.9,4.11,14.1,14.1,0,0,0,11.55-6,136.59,136.59,0,0,0,23.39-56.68,14,14,0,0,0-13.9-16.16Z"/><g class="cls-7"><g class="cls-8"><circle class="cls-9" cx="157.56" cy="268.26" r="67.4"/><g class="cls-7"><path class="cls-6" d="M-184,322.15c7.11-121,111.34-213.68,232.35-206.57S262,226.92,254.93,347.93,143.59,561.61,22.58,554.5-191.1,443.16-184,322.15ZM187.13,344C192,260.33,128,188.3,44.38,183.38s-155.66,59.13-160.57,142.75S-57.06,481.79,26.56,486.7,182.22,427.58,187.13,344Z"/></g><path class="cls-1" d="M704.18,400.52c5.6-95.44-67.48-177.65-162.93-183.26A173.16,173.16,0,0,0,399.84,277.2a156.41,156.41,0,0,1,4.6,231.39,172.74,172.74,0,0,0,116.48,54.86C616.36,569.06,698.57,496,704.18,400.52Z"/><path class="cls-9" d="M399.84,277.2a172.93,172.93,0,0,0,4.6,231.39,156.41,156.41,0,0,0-4.6-231.39Z"/><g class="cls-10"><path class="cls-6" d="M781.41,405.06c8.11-138-97.59-256.93-235.62-265s-256.93,97.59-265,235.62,97.59,256.92,235.62,265S773.3,543.09,781.41,405.06Zm-377,103.53A173.36,173.36,0,0,1,541.25,217.26c95.45,5.61,168.53,87.82,162.93,183.26S616.36,569.06,520.92,563.45A172.74,172.74,0,0,1,404.44,508.59Z"/></g><circle class="cls-11" cx="150.14" cy="513.03" r="104.45"/></g></g><g class="cls-12"><path class="cls-13" d="M141.65,339s-6.55,34.86,48.51,57.87c0,0-5.57,108.4,92,145.68,0,0-.67,1.41,25.47-9.42l-25.47-79.88-34.7-85.15-4.71-8.81Z"/></g><path class="cls-14" d="M141.65,339l262-181.9,41.72,56.74L237.1,359.47A66.68,66.68,0,0,1,141.65,339Z"/><path class="cls-15" d="M434.22,183.13l-17.08-24.89a4,4,0,0,1,1.05-5.55l106.07-72a10,10,0,0,1,13.82,2.55l9.27,13.28c8.3,11.9.91,28.57-13.53,30l-.29,0c-3.26.3-6.66.16-9.65,1.48-5.85,2.58-8,9.54-11.24,15.05a34.14,34.14,0,0,1-27.26,16.54c-5.67.28-12-.71-16.47,2.75-5.5,4.23-5.13,12.59-8.45,18.69-3.93,7.2-13.61,11-21.35,6.72A14.92,14.92,0,0,1,434.22,183.13Z"/><circle class="cls-14" cx="445.75" cy="160.02" r="6.04" transform="translate(-12.33 280.28) rotate(-34.46)"/><circle class="cls-14" cx="485.8" cy="132.54" r="6.04" transform="translate(61.01 402.95) rotate(-47.74)"/><circle class="cls-14" cx="525.86" cy="105.05" r="6.04" transform="translate(32.83 315.97) rotate(-34.46)"/><polygon class="cls-16" points="403.49 157.25 445.38 213.86 454.24 208.32 412.28 151.14 403.49 157.25"/><g class="cls-12"><path class="cls-13" d="M303.62,235.64s52.72-41.81,141.76-21.78l-16.52,12.49-77,21.84Z"/></g><circle class="cls-4" cx="377.54" cy="383.41" r="165.2"/><path class="cls-17" d="M379.79,96.38a36.32,36.32,0,0,1-51,26c-5.65,18.2-16.13,52.13-15.64,52,.23-.05,6.91-2.6,15.68-6a19.64,19.64,0,0,1,36.57-14l6.66-2.56h0a31.43,31.43,0,0,0,7.7-55.47Z"/><path class="cls-4" d="M221,103.55c3.72-12,6.87-22.11,6.87-22.11h0A31.42,31.42,0,0,0,202.34,40a36.4,36.4,0,0,1-19.56,64.3c3.15,4.58,6.62,9.6,10,14.46A36.31,36.31,0,0,1,221,103.55Z"/><path class="cls-4" d="M51.76,189.57a36.24,36.24,0,0,1,6.44-20.65A31.44,31.44,0,0,0,3.05,189.57c0,.25,0,.49,0,.74a36.89,36.89,0,0,1,7.33-.74,36.37,36.37,0,0,1,35.92,30.79c5.86-.33,13.25-.75,20.68-1.2A36.33,36.33,0,0,1,51.76,189.57Z"/><path class="cls-3" d="M10.42,189.57a36.89,36.89,0,0,0-7.33.74A31.43,31.43,0,0,0,34.5,221c1.14,0,2.27-.07,3.38-.18l8.46-.48A36.37,36.37,0,0,0,10.42,189.57Z"/><path class="cls-6" d="M58.73,169.51h0c-.17-.21-.35-.4-.53-.6A36.32,36.32,0,0,0,67,219.16c16.74-1,33.65-2.07,33.45-2.36C100.09,216.23,58.73,169.51,58.73,169.51Z"/><path class="cls-3" d="M215.58,68.06A36.29,36.29,0,0,0,202.34,40a31.44,31.44,0,0,0-31.12,47.47q.9,1.45,1.92,2.79l9.64,14A36.4,36.4,0,0,0,215.58,68.06Z"/><path class="cls-6" d="M209.05,141.66c.18-.37,6.62-21.08,11.91-38.11a36.31,36.31,0,0,0-28.2,15.19C201.2,130.91,208.92,141.94,209.05,141.66Z"/><path class="cls-4" d="M347.7,143.19a19.63,19.63,0,0,0-18.84,25.25c11.94-4.57,27.76-10.64,36.57-14A19.63,19.63,0,0,0,347.7,143.19Z"/><path class="cls-3" d="M379.79,96.38a31.36,31.36,0,0,0-47.47,14.74,30,30,0,0,0-1,3.23c-.62,2-1.48,4.75-2.5,8a36.32,36.32,0,0,0,51-26Z"/><g class="cls-18"><circle class="cls-9" cx="238.16" cy="366.88" r="67.4"/><g class="cls-7"><path class="cls-6" d="M51.5,658c-85.72-85.72-85.72-225.19,0-310.9s225.18-85.72,310.9,0,85.71,225.18,0,310.9S137.21,743.66,51.5,658ZM314.37,395.07c-59.23-59.23-155.61-59.23-214.85,0s-59.23,155.62,0,214.85,155.62,59.23,214.85,0S373.6,454.31,314.37,395.07Z"/></g><path class="cls-1" d="M700.19,46.24c-67.61-67.61-177.61-67.61-245.21,0a173.19,173.19,0,0,0-49.17,145.51,156.41,156.41,0,0,1,176,150.31,172.71,172.71,0,0,0,118.39-50.61C767.8,223.85,767.8,113.85,700.19,46.24Z"/><path class="cls-9" d="M405.81,191.75a173,173,0,0,0,176,150.31,156.41,156.41,0,0,0-176-150.31Z"/><g class="cls-10"><path class="cls-6" d="M754.9-8.47c-97.77-97.77-256.86-97.77-354.63,0s-97.77,256.86,0,354.63,256.86,97.77,354.63,0S852.67,89.3,754.9-8.47ZM581.8,342.06A173.36,173.36,0,0,1,455,46.24c67.6-67.61,177.6-67.61,245.21,0s67.61,177.61,0,245.21A172.71,172.71,0,0,1,581.8,342.06Z"/></g><circle class="cls-11" cx="416.16" cy="535.06" r="104.45"/></g></svg>